/* XPM */
static char * grass_with_rock_xpm[] = {
"64 64 6 1",
" 	c #48B038",
".	c #086040",
"+	c #60C818",
"@	c #183828",
"#	c #208030",
"$	c #40A820",
"                                                                ",
"                                                                ",
"                                                                ",
"                                                                ",
"                                                                ",
"                                                                ",
"                                  ......                        ",
"                                  ......                        ",
"                              ....++++..                        ",
"                              ....++++..                        ",
"                    ......  @@##++++..@@....                    ",
"                    ......  @@##++++..@@....                    ",
"                ....++$$##@@@@##$$$$@@##$$++....                ",
"                ....++$$##@@@@##$$$$@@##$$++....                ",
"              ..++++++$$##..@@....@@..##$$++++++..              ",
"              ..++++++$$##..@@....@@..##$$++++++..              ",
"            ..++++++$$##..@@@@@@@@@@@@@@##$$++++++..            ",
"            ..++++++$$##..@@@@@@@@@@@@@@##$$++++++..            ",
"          ..++++....@@@@####..@@@@..####@@@@....++++..          ",
"          ..++++....@@@@####..@@@@..####@@@@....++++..          ",
"          ....@@@@@@@@$$$$$$..@@@@..$$$$$$@@@@@@@@....          ",
"          ....@@@@@@@@$$$$$$..@@@@..$$$$$$@@@@@@@@....          ",
"            @@@@....@@++++$$@@....@@$$++++@@....@@@@            ",
"            @@@@....@@++++$$@@....@@$$++++@@....@@@@            ",
"          @@######..++++++$$@@####@@$$++++++..######@@          ",
"          @@######..++++++$$@@####@@$$++++++..######@@          ",
"        @@$$$$####@@++++++@@##$$$$##@@++++++@@####$$$$@@        ",
"        @@$$$$####@@++++++@@##$$$$##@@++++++@@####$$$$@@        ",
"        ..$$$$$$##@@++..@@@@$$$$$$$$@@@@..++@@##$$$$$$..        ",
"        ..$$$$$$##@@++..@@@@$$$$$$$$@@@@..++@@##$$$$$$..        ",
"      @@$$$$$$$$##@@@@....@@$$$$$$$$@@....@@@@##$$$$$$$$@@      ",
"      @@$$$$$$$$##@@@@....@@$$$$$$$$@@....@@@@##$$$$$$$$@@      ",
"      @@$$$$..@@@@########@@##$$$$##@@########@@@@..$$$$@@      ",
"      @@$$$$..@@@@########@@##$$$$##@@########@@@@..$$$$@@      ",
"      @@$$@@@@@@..$$$$####@@@@$$$$@@@@####$$$$..@@@@@@$$@@      ",
"      @@$$@@@@@@..$$$$####@@@@$$$$@@@@####$$$$..@@@@@@$$@@      ",
"        @@@@@@@@$$$$$$##@@@@@@####@@@@@@##$$$$$$@@@@@@@@        ",
"        @@@@@@@@$$$$$$##@@@@@@####@@@@@@##$$$$$$@@@@@@@@        ",
"          @@..@@$$$$..@@@@....@@@@....@@@@..$$$$@@..@@          ",
"          @@..@@$$$$..@@@@....@@@@....@@@@..$$$$@@..@@          ",
"        @@....@@$$@@@@........@@@@........@@@@$$@@....@@        ",
"        @@....@@$$@@@@........@@@@........@@@@$$@@....@@        ",
"        @@....@@@@@@@@####....@@@@....####@@@@@@@@....@@        ",
"        @@....@@@@@@@@####....@@@@....####@@@@@@@@....@@        ",
"        @@@@@@....@@######..@@@@@@@@..######@@....@@@@@@        ",
"        @@@@@@....@@######..@@@@@@@@..######@@....@@@@@@        ",
"          ........@@####@@@@@@....@@@@@@####@@........          ",
"          ........@@####@@@@@@....@@@@@@####@@........          ",
"          ##....##@@##@@@@............@@@@##@@##....##          ",
"          ##....##@@##@@@@............@@@@##@@##....##          ",
"            ##    @@@@....##........##....@@@@    ##            ",
"            ##    @@@@....##........##....@@@@    ##            ",
"                  ......##  ##....##  ##......                  ",
"                  ......##  ##....##  ##......                  ",
"                  ##..##      ####      ##..##                  ",
"                  ##..##      ####      ##..##                  ",
"                    ##                    ##                    ",
"                    ##                    ##                    ",
"                                                                ",
"                                                                ",
"                                                                ",
"                                                                ",
"                                                                ",
"                                                                "};
