/* XPM */
static char * char_up_xpm[] = {
"64 64 16 1",
" 	c #48B038",
".	c #382838",
"+	c #E86868",
"@	c #985868",
"#	c #585880",
"$	c #000000",
"%	c #C8D8E8",
"&	c #F8F8F8",
"*	c #A8B8D0",
"=	c #604030",
"-	c #70A0E0",
";	c #4078C0",
">	c #385098",
",	c #F8D0B8",
"'	c #404058",
")	c #D09870",
"                                                                ",
"                                                                ",
"                                                                ",
"                                                                ",
"                                                                ",
"                                                                ",
"                          ............                          ",
"                          ............                          ",
"                      ....++++++++++++....                      ",
"                      ....++++++++++++....                      ",
"                    ..@@++++++####++++++@@..                    ",
"                    ..@@++++++####++++++@@..                    ",
"                  $$@@%%&&&&&&####&&&&&&%%@@$$                  ",
"                  $$@@%%&&&&&&####&&&&&&%%@@$$                  ",
"                  $$**%%&&&&&&&&&&&&&&&&%%**$$                  ",
"                  $$**%%&&&&&&&&&&&&&&&&%%**$$                  ",
"                $$******%%&&&&&&&&&&&&%%******$$                ",
"                $$******%%&&&&&&&&&&&&%%******$$                ",
"                $$********%%%%%%%%%%%%********$$                ",
"                $$********%%%%%%%%%%%%********$$                ",
"                $$****************************$$                ",
"                $$****************************$$                ",
"                $$..********........********..$$                ",
"                $$..********........********..$$                ",
"            $$..@@..********........********..@@$$$$            ",
"            $$..@@..********........********..@@$$$$            ",
"              $$====..********************..====$$              ",
"              $$====..********************..====$$              ",
"                $$====....************....====$$                ",
"                $$====....************....====$$                ",
"                  $$..====............====..$$                  ",
"                  $$..====............====..$$                  ",
"                  ..========================$$                  ",
"                  ..========================$$                  ",
"                    $$$$==$$========$$==$$$$                    ",
"                    $$$$==$$========$$==$$$$                    ",
"                    $$$$$$==$$$$$$$$==$$$$$$                    ",
"                    $$$$$$==$$$$$$$$==$$$$$$                    ",
"                ==$$--;;$$$$>>>>..>>$$$$;;--$$==                ",
"                ==$$--;;$$$$>>>>..>>$$$$;;--$$==                ",
"              ==,,''>>$$>>$$>>$$''>>$$  $$>>'',,==              ",
"              ==,,''>>$$>>$$>>$$''>>$$  $$>>'',,==              ",
"              ==,,))$$;;>>$$$$''>>;;$$    $$)),,==              ",
"              ==,,))$$;;>>$$$$''>>;;$$    $$)),,==              ",
"                $$$$--%%''$$'';;;;;;>>$$    $$$$                ",
"                $$$$--%%''$$'';;;;;;>>$$    $$$$                ",
"                  $$%%''''$$;;;;;;>>''$$                        ",
"                  $$%%''''$$;;;;;;>>''$$                        ",
"                  $$''''$$..............                        ",
"                  $$''''$$..............                        ",
"                    $$$$$$....$$$$....$$                        ",
"                    $$$$$$....$$$$....$$                        ",
"                      $$''''$$    $$''''$$                      ",
"                      $$''''$$    $$''''$$                      ",
"                      $$@@@@$$    $$@@@@$$                      ",
"                      $$@@@@$$    $$@@@@$$                      ",
"                        $$$$        $$$$                        ",
"                        $$$$        $$$$                        ",
"                                                                ",
"                                                                ",
"                                                                ",
"                                                                ",
"                                                                ",
"                                                                "};
