/* XPM */
static char * char_left_xpm[] = {
"64 64 15 1",
" 	c #48B038",
".	c #382838",
"+	c #404058",
"@	c #E86868",
"#	c #F8F8F8",
"$	c #A8B8D0",
"%	c #585880",
"&	c #000000",
"*	c #985868",
"=	c #C8D8E8",
"-	c #604030",
";	c #F8D0B8",
">	c #D09870",
",	c #385098",
"'	c #70A0E0",
"                                                                ",
"                                                                ",
"                                                                ",
"                                                                ",
"                                                                ",
"                                                                ",
"                            ......++++++                        ",
"                            ......++++++                        ",
"                        ....@@@@@@####$$++++                    ",
"                        ....@@@@@@####$$++++                    ",
"                      ..@@@@@@@@%%%%######$$++                  ",
"                      ..@@@@@@@@%%%%######$$++                  ",
"                    &&**@@@@@@@@%%%%######==$$&&                ",
"                    &&**@@@@@@@@%%%%######==$$&&                ",
"                    &&**@@@@@@@@@@########==$$&&                ",
"                    &&**@@@@@@@@@@########==$$&&                ",
"                  &&%%%%**@@@@@@@@########$$$$%%&&              ",
"                  &&%%%%**@@@@@@@@########$$$$%%&&              ",
"              ....&&**..%%**@@@@@@######==$$%%..--..            ",
"              ....&&**..%%**@@@@@@######==$$%%..--..            ",
"            ..%%%%++..**..********$$$$$$$$$$..$$&&              ",
"            ..%%%%++..**..********$$$$$$$$$$..$$&&              ",
"          ..%%%%%%++**--..********$$$$$$$$$$%%$$..&&            ",
"          ..%%%%%%++**--..********$$$$$$$$$$%%$$..&&            ",
"          ..%%%%%%%%++..**********$$$$$$$$$$$$--&&              ",
"          ..%%%%%%%%++..**********$$$$$$$$$$$$--&&              ",
"            ..%%%%%%%%++++********$$$$$$$$$$------&&            ",
"            ..%%%%%%%%++++********$$$$$$$$$$------&&            ",
"              ............&&##--..----..----------**&&          ",
"              ............&&##--..----..----------**&&          ",
"                    --;;;;&&##>>....----..------&&&&            ",
"                    --;;;;&&##>>....----..------&&&&            ",
"                    >>;;;;;;;;>>>>......----&&&&                ",
"                    >>;;;;;;;;>>>>......----&&&&                ",
"                      -->>;;>>....------&&----&&                ",
"                      -->>;;>>....------&&----&&                ",
"                        &&&&--&&....&&&&  &&&&                  ",
"                        &&&&--&&....&&&&  &&&&                  ",
"                            &&$$,,,,&&                          ",
"                            &&$$,,,,&&                          ",
"                            &&,,++'',,&&                        ",
"                            &&,,++'',,&&                        ",
"                            $$,,..'',,&&                        ",
"                            $$,,..'',,&&                        ",
"                            ......++..&&                        ",
"                            ......++..&&                        ",
"                          &&==++;;++%%$$&&                      ",
"                          &&==++;;++%%$$&&                      ",
"                          &&$$%%>>;;%%$$&&                      ",
"                          &&$$%%>>;;%%$$&&                      ",
"                            ..$$%%%%$$&&                        ",
"                            ..$$%%%%$$&&                        ",
"                              &&....&&                          ",
"                              &&....&&                          ",
"                            &&****..&&                          ",
"                            &&****..&&                          ",
"                              &&&&&&                            ",
"                              &&&&&&                            ",
"                                                                ",
"                                                                ",
"                                                                ",
"                                                                ",
"                                                                ",
"                                                                "};
