/* XPM */
static char * coin_xpm[] = {
"64 64 11 1",
" 	c #48B038",
".	c #383828",
"+	c #B81800",
"@	c #D81800",
"#	c #F81800",
"$	c #F86050",
"%	c #F8B0A8",
"&	c #F8F8F8",
"*	c #686860",
"=	c #A0A0A0",
"-	c #C8C8C8",
"                                                                ",
"                                                                ",
"                                                                ",
"                                                                ",
"                                                                ",
"                                                                ",
"                                                                ",
"                                                                ",
"                                                                ",
"                                                                ",
"                                                                ",
"                                                                ",
"                                                                ",
"                                                                ",
"                                                                ",
"                                                                ",
"                                                                ",
"                                                                ",
"                                                                ",
"                                                                ",
"                                                                ",
"                             ......                             ",
"                           ..+@@@@+..                           ",
"                         ..#$$#####@+..                         ",
"                        .+@$%%$######@+.                        ",
"                       .+@#%&&%#######@+.                       ",
"                       .@##$%%$#######@@.                       ",
"                      .+####$$#########@+.                      ",
"                      .@###############@+.                      ",
"                     .+@###############@++.                     ",
"                     .+@###############@++.                     ",
"                     .+@##############@+++.                     ",
"                     .*+@############@+++*.                     ",
"                     ..+@###########@++++..                     ",
"                     ..*@########@@+++++*..                     ",
"                      ..**####****++++**..                      ",
"                      .=..****&&&-.***..=.                      ",
"                       .=-...&=--*-...==.                       ",
"                       .*=--.=*&&*=.===*.                       ",
"                        .*===.=-&=.===*.                        ",
"                         ..===....===..                         ",
"                           ..======..                           ",
"                             ......                             ",
"                                                                ",
"                                                                ",
"                                                                ",
"                                                                ",
"                                                                ",
"                                                                ",
"                                                                ",
"                                                                ",
"                                                                ",
"                                                                ",
"                                                                ",
"                                                                ",
"                                                                ",
"                                                                ",
"                                                                ",
"                                                                ",
"                                                                ",
"                                                                ",
"                                                                ",
"                                                                ",
"                                                                "};
